<svg
  width="32"
  height="32"
  viewBox="0 0 17 9"
  version="1.1"
  xmlns="http://www.w3.org/2000/svg"
  xmlns:xlink="http://www.w3.org/1999/xlink"
  xml:space="preserve"
  style="fill-rule: evenodd; clip-rule: evenodd; stroke-linejoin: round; stroke-miterlimit: 2;"
>
  <g transform="matrix(1,0,0,1,-3.5,-6.5)">
    <g>
      <path
        d="M16,15C16,12.806 14.194,11 12,11C9.806,11 8,12.806 8,15L16,15Z"
        style="fill-rule: nonzero; fill: #6366f1;"
      />
      <path
        d="M16,15.5C16.276,15.5 16.5,15.276 16.5,15C16.5,12.531 14.469,10.5 12,10.5C9.531,10.5 7.5,12.531 7.5,15C7.5,15.276 7.724,15.5 8,15.5L16,15.5ZM15.464,14.5L8.536,14.5C8.782,12.813 10.25,11.5 12,11.5C13.75,11.5 15.218,12.813 15.464,14.5L15.464,14.5Z"
        style="fill: #6366f1;"
      />
      <path
        d="M12,7L12,9"
        style="fill: none; fill-rule: nonzero; stroke: #6366f1; stroke-width: 1px;"
      />
      <path
        d="M11.5,7L11.5,9C11.5,9.276 11.724,9.5 12,9.5C12.276,9.5 12.5,9.276 12.5,9L12.5,7C12.5,6.724 12.276,6.5 12,6.5C11.724,6.5 11.5,6.724 11.5,7Z"
        style="fill: #6366f1;"
      />
      <path
        d="M17.66,9.34L16.24,10.76"
        style="fill: none; fill-rule: nonzero; stroke: #6366f1; stroke-width: 1px;"
      />
      <path
        d="M17.306,8.986L15.886,10.406C15.691,10.602 15.691,10.918 15.886,11.114C16.082,11.309 16.398,11.309 16.594,11.114L18.014,9.694C18.209,9.498 18.209,9.182 18.014,8.986C17.818,8.791 17.502,8.791 17.306,8.986Z"
        style="fill: #6366f1;"
      />
      <path
        d="M20,15L18,15"
        style="fill: none; fill-rule: nonzero; stroke: #6366f1; stroke-width: 1px;"
      />
      <path
        d="M20,14.5L18,14.5C17.724,14.5 17.5,14.724 17.5,15C17.5,15.276 17.724,15.5 18,15.5L20,15.5C20.276,15.5 20.5,15.276 20.5,15C20.5,14.724 20.276,14.5 20,14.5Z"
        style="fill: #6366f1;"
      />
      <path
        d="M4,15L6,15"
        style="fill: none; fill-rule: nonzero; stroke: #6366f1; stroke-width: 1px;"
      />
      <path
        d="M4,15.5L6,15.5C6.276,15.5 6.5,15.276 6.5,15C6.5,14.724 6.276,14.5 6,14.5L4,14.5C3.724,14.5 3.5,14.724 3.5,15C3.5,15.276 3.724,15.5 4,15.5Z"
        style="fill: #6366f1;"
      />
      <path
        d="M6.34,9.34L7.76,10.76"
        style="fill: none; fill-rule: nonzero; stroke: #6366f1; stroke-width: 1px;"
      />
      <path
        d="M5.986,9.694L7.406,11.114C7.602,11.309 7.918,11.309 8.114,11.114C8.309,10.918 8.309,10.602 8.114,10.406L6.694,8.986C6.498,8.791 6.182,8.791 5.986,8.986C5.791,9.182 5.791,9.498 5.986,9.694Z"
        style="fill: #6366f1;"
      />
    </g>
  </g>
</svg>
